<?xml version="1.0" encoding="UTF-8"?>
<svg version="1.1" xmlns="http://www.w3.org/2000/svg" width="880" height="526">
<path d="M0 0 C3.00798865 -0.40721868 5.97321367 -0.12971941 9 0 C12.74097887 8.5120677 15.82706318 17.16687053 18.70297241 25.99768066 C20.00233435 29.98198033 21.3211408 33.95982674 22.640625 37.9375 C22.91577438 38.76711243 23.19092377 39.59672485 23.47441101 40.45147705 C26.4565298 49.41543807 29.5584189 58.33644582 32.6875 67.25 C32.9741452 68.06699371 33.26079041 68.88398743 33.55612183 69.72573853 C37.07416363 79.74548402 40.62060908 89.75509626 44.17578125 99.76171875 C51.20232835 119.54144435 58.19906232 139.32884249 65 159.1875 C65.30172119 160.06534149 65.60344238 160.94318298 65.91430664 161.84762573 C66.75892526 164.30737638 67.59904127 166.76861257 68.4375 169.23046875 C68.68455688 169.9489801 68.93161377 170.66749146 69.18615723 171.40777588 C70.37345749 174.91391948 71.3837695 178.34732914 72 182 C72.93457031 181.52691406 73.86914062 181.05382812 74.83203125 180.56640625 C79.21129298 178.35723775 83.60345406 176.17453746 88 174 C89.0828125 173.46294434 89.0828125 173.46294434 90.1875 172.91503906 C123.51712861 156.47664886 159.00372871 144.15665 195 135 C196.10279297 134.71850098 197.20558594 134.43700195 198.34179688 134.14697266 C229.68786866 126.25777224 261.48640712 120.85566083 293.60742188 117.37011719 C297.28155846 116.96928306 300.95115735 116.53769386 304.62011719 116.09228516 C319.03942681 114.44049299 333.49963316 113.81418099 348 113.4375 C348.78490814 113.41698578 349.56981628 113.39647156 350.37850952 113.37533569 C412.53806153 111.79614582 473.47521279 116.06818858 535 125 C535 125.99 535 126.98 535 128 C535.83917969 128.14695313 535.83917969 128.14695313 536.6953125 128.296875 C539.47556031 128.81537781 542.23591688 129.40105795 545 130 C546.18980469 130.24492187 547.37960937 130.48984375 548.60546875 130.7421875 C557.99739941 132.97883274 557.99739941 132.97883274 560.8984375 135.93359375 C562.1875 138.0625 562.1875 138.0625 563.10546875 140.09765625 C564.10053797 142.21380783 565.32286892 143.39602189 567 145 C565.88560614 148.96139848 564.7567071 152.91851606 563.625 156.875 C563.30789063 158.00292969 562.99078125 159.13085938 562.6640625 160.29296875 C562.3546875 161.36933594 562.0453125 162.44570312 561.7265625 163.5546875 C561.44377441 164.54968262 561.16098633 165.54467773 560.86962891 166.56982422 C560 169 560 169 558 171 C546.26931092 163.83124556 536.68783312 154.65864118 533 141 C532.75282695 136.6596413 532.91133383 132.34464236 533 128 C522.69656122 126.21715011 512.41658642 125.24267861 502 124.4375 C501.17631927 124.37274475 500.35263855 124.3079895 499.5039978 124.24127197 C487.00707293 123.26061671 474.53107461 122.38511577 462 122 C460.53124208 121.95075643 459.06249278 121.90125564 457.59375 121.8515625 C433.6808831 121.05656623 409.90122227 120.86537331 386 122 C384.75412109 122.05526855 383.50824219 122.11053711 382.22460938 122.16748047 C348.63685828 123.72836464 315.04478673 127.82200232 282 134 C280.77071777 134.22800293 279.54143555 134.45600586 278.27490234 134.69091797 C211.27510244 147.25284159 139.00117481 168.29195876 82 207 C83.72333653 212.23110415 85.45315042 217.46003682 87.1875 222.6875 C87.58624329 223.88956085 87.58624329 223.88956085 87.99304199 225.11590576 C92.10811536 237.50255279 96.38010298 249.8262309 100.75 262.125 C104.38464125 272.35841357 107.89580973 282.59012243 111 293 C115.55644255 308.24735328 120.92521175 323.20301921 126.28125 338.18359375 C127.71008738 342.18158284 129.12534924 346.18422713 130.53709412 350.1882782 C143.55093981 395.38293975 143.55093981 395.38293975 171 430.75 C184.78987898 437.21877333 196.38653925 438.72878844 211.44407654 438.63923645 C213.48230702 438.6455584 215.52053167 438.65406752 217.55874497 438.66455668 C223.12316255 438.68693774 228.68716241 438.67854376 234.25159228 438.6648711 C240.26573569 438.65557348 246.27979517 438.67517637 252.29391479 438.69119263 C262.70168372 438.71499002 273.10936134 438.7208266 283.51714897 438.71384621 C294.42630488 438.70660562 305.33537763 438.70974018 316.244524 438.72656822 C316.92418918 438.72761087 317.60385435 438.72865352 318.30411544 438.72972776 C321.75614335 438.73507691 325.20817095 438.74060986 328.66019846 438.74621352 C353.07660849 438.78551852 377.49298459 438.80180735 401.90942383 438.80444336 C425.62168291 438.80705631 449.33389845 438.82016765 473.04614258 438.84741211 C473.77775114 438.84824853 474.5093597 438.84908496 475.26313822 438.84994673 C482.61061351 438.85835842 489.95808855 438.86698267 497.30556341 438.87576263 C512.27166517 438.89364173 527.23776838 438.91010253 542.20387268 438.92570496 C542.89190839 438.926424 543.5799441 438.92714303 544.28882938 438.92788386 C590.19253869 438.97569352 636.09626848 438.99034305 682 439 C682 442.96 682 446.92 682 451 C483.67 451 285.34 451 81 451 C81 442 81 442 82.4296875 440.0546875 C86.2329583 438.49407486 90.08811957 437.83490991 94.125 437.125 C102.9013021 435.41752886 110.1991872 433.47733937 116.9375 427.3125 C123.23317909 417.20125783 122.61004078 407.1490874 120.125 395.79296875 C117.17133824 383.40717163 112.84835139 371.42854757 108.58154297 359.44873047 C107.02950673 355.08924376 105.49115325 350.7249789 103.95333862 346.36045837 C102.0754206 341.0311384 100.19412342 335.70301264 98.3125 330.375 C97.9470105 329.3396109 97.581521 328.3042218 97.20495605 327.23745728 C92.13378641 312.8781547 92.13378641 312.8781547 86.8359375 298.6015625 C83.75309126 290.47976705 81.02359774 282.25191785 78.3125 274 C77.27452274 270.85467609 76.23370017 267.71030219 75.19140625 264.56640625 C74.79869034 263.38142296 74.79869034 263.38142296 74.39804077 262.17250061 C72.5630801 256.6521766 70.68432742 251.14817566 68.77734375 245.65234375 C68.52048294 244.91126373 68.26362213 244.17018372 67.99897766 243.40664673 C66.77313293 239.87361045 65.54127984 236.3427988 64.30200195 232.81445312 C63.86265708 231.55213062 63.42344068 230.28976339 62.984375 229.02734375 C62.59991211 227.93156006 62.21544922 226.83577637 61.81933594 225.70678711 C61 223 61 223 61 220 C47.35238452 228.78823724 34.40670834 238.53566772 22 249 C21.46165527 249.45342773 20.92331055 249.90685547 20.36865234 250.37402344 C18.59626732 251.87008229 16.82849575 253.3714057 15.0625 254.875 C14.27528564 255.54305664 14.27528564 255.54305664 13.47216797 256.22460938 C3.56851673 264.71430379 -5.87181776 273.68509936 -15.09204102 282.90673828 C-16.69204519 284.50453893 -18.29993615 286.09411551 -19.90820312 287.68359375 C-25.64022596 293.38521117 -30.99529308 299.18275169 -36.01245117 305.53271484 C-38.12538624 308.15565083 -40.34954916 310.64241476 -42.625 313.125 C-46.67268164 317.58026069 -50.39320563 322.18455365 -54 327 C-54.56114502 327.72405029 -55.12229004 328.44810059 -55.70043945 329.1940918 C-60.42919268 335.54615836 -63.13827569 341.80793005 -65.5625 349.3125 C-65.94108154 350.44534424 -66.31966309 351.57818848 -66.7097168 352.74536133 C-70.12147001 363.07625729 -73.16099087 373.49919294 -76 384 C-76.40584762 385.47406918 -76.81208102 386.94803221 -77.21875 388.421875 C-80.51508553 400.49230104 -83.89897314 413.17970913 -78 425 C-74.30708635 430.97731216 -69.66472319 434.00339516 -63 436 C-59.09049089 436.82199935 -55.20105564 437.55013136 -51.2578125 438.19140625 C-46.72734349 439.31587518 -46.72734349 439.31587518 -45 442 C-45.0625 445.5625 -45.0625 445.5625 -46 449 C-49.11001528 451.18309257 -51.82861209 451.24112663 -55.55471802 451.21600342 C-56.684823 451.21322891 -57.81492798 451.21045441 -58.97927856 451.20759583 C-60.21475433 451.19419662 -61.4502301 451.18079742 -62.72314453 451.16699219 C-64.67966949 451.15761879 -64.67966949 451.15761879 -66.67572021 451.14805603 C-70.24999406 451.13044177 -73.82405279 451.10000222 -77.398211 451.06672192 C-81.13684064 451.03351677 -84.87553449 451.01024953 -88.61422729 450.9854126 C-94.89051506 450.94206208 -101.16669063 450.89018548 -107.44287109 450.83349609 C-114.70465009 450.7680306 -121.96642467 450.71703885 -129.22836602 450.67355418 C-135.46033798 450.63586724 -141.69221858 450.59046279 -147.92408836 450.53855062 C-151.64756225 450.50753647 -155.37100468 450.47920517 -159.09454727 450.45778656 C-163.2417322 450.43341337 -167.38860341 450.39285256 -171.53564453 450.35058594 C-172.77516876 450.34528366 -174.01469299 450.33998138 -175.29177856 450.33451843 C-176.4162439 450.32046463 -177.54070923 450.30641083 -178.69924927 450.29193115 C-180.1709341 450.27973856 -180.1709341 450.27973856 -181.67234993 450.26729965 C-184 450 -184 450 -186 448 C-186.55159166 442.81503842 -186.55159166 442.81503842 -184.953125 440.453125 C-182.07899424 438.31477171 -178.84355666 437.61367392 -175.4375 436.6875 C-169.40566051 434.9389733 -164.29055317 432.82713226 -159.015625 429.33203125 C-157 428 -157 428 -154.796875 426.9375 C-152.41819711 425.69645067 -152.10427825 424.41560867 -151 422 C-150.38640625 421.23558594 -149.7728125 420.47117187 -149.140625 419.68359375 C-134.03170727 400.74230455 -127.78262877 374.56285592 -120 352 C-119.4614363 350.44123986 -118.92286206 348.88248335 -118.38427734 347.32373047 C-112.29831516 329.69460446 -106.3232427 312.02999187 -100.44628906 294.33016968 C-96.3552511 282.01266748 -92.19332808 269.72052576 -88 257.4375 C-82.71701119 241.96201548 -77.46713719 226.47562911 -72.2421875 210.98046875 C-71.79199627 209.64543839 -71.79199627 209.64543839 -71.33271027 208.28343773 C-68.30002389 199.28948742 -65.26885315 190.29502756 -62.239748 181.29987049 C-60.80364461 177.03565448 -59.36686687 172.77166598 -57.9296875 168.5078125 C-57.64667912 167.66813368 -57.36367073 166.82845486 -57.07208633 165.96333122 C-52.32117231 151.87222013 -47.5220698 137.79787059 -42.70921326 123.72781372 C-38.4912115 111.39460685 -34.31274948 99.04968965 -30.21878052 86.6746521 C-24.93881317 70.72017158 -19.56880862 54.7991108 -14.08789062 38.91259766 C-10.77594793 29.30704758 -7.53614285 19.67994572 -4.40844727 10.01245117 C-4.11639404 9.12146729 -3.82434082 8.2304834 -3.5234375 7.3125 C-3.27513184 6.54550781 -3.02682617 5.77851563 -2.77099609 4.98828125 C-2 3 -2 3 0 0 Z M19 102 C16.32680375 108.51684228 13.87632098 115.06860546 11.63671875 121.74609375 C11.32830048 122.65745087 11.0198822 123.56880798 10.70211792 124.50778198 C10.04016404 126.46401899 9.37932509 128.42063357 8.71951294 130.37759399 C6.9369493 135.66287384 5.14473768 140.94487498 3.3515625 146.2265625 C2.98585648 147.30386124 2.62015045 148.38115997 2.24336243 149.49110413 C-0.96300955 158.92122595 -4.23552812 168.32736571 -7.53109741 177.72662354 C-13.18287968 193.85059642 -18.79138562 209.98966607 -24.3298645 226.15292358 C-25.10688918 228.41704173 -25.88655264 230.68025607 -26.66891479 232.9425354 C-27.75522212 236.08557838 -28.83196023 239.23173895 -29.90625 242.37890625 C-30.40029076 243.79904022 -30.40029076 243.79904022 -30.90431213 245.24786377 C-31.34323036 246.54358307 -31.34323036 246.54358307 -31.79101562 247.86547852 C-32.04999634 248.61958511 -32.30897705 249.37369171 -32.57580566 250.15065002 C-33.22474128 252.08040068 -33.22474128 252.08040068 -32 254 C-31.14019531 253.24976563 -30.28039062 252.49953125 -29.39453125 251.7265625 C-16.51462881 240.54767516 -2.9951677 230.45641895 10.86767578 220.53564453 C12.77564659 219.1615735 14.66995289 217.77154385 16.55859375 216.37109375 C24.17589834 210.75957189 32.09051104 205.81266082 40.24951172 201.02124023 C41.06693848 200.54114502 41.88436523 200.0610498 42.7265625 199.56640625 C43.45439941 199.14302979 44.18223633 198.71965332 44.93212891 198.28344727 C47.05405036 196.96645304 49.0249958 195.52674669 51 194 C49.73487742 188.70832162 48.27032334 183.56079765 46.48828125 178.41796875 C46.24307739 177.70182404 45.99787354 176.98567932 45.74523926 176.24783325 C44.93783181 173.89316757 44.12541126 171.54027074 43.3125 169.1875 C42.74229906 167.53088873 42.17223344 165.87423087 41.60229492 164.2175293 C40.06687281 159.75880961 38.52594657 155.30200873 36.98388672 150.84558105 C35.97192425 147.91879979 34.96227477 144.99122875 33.953125 142.06347656 C32.24409813 137.10650784 30.52999382 132.15132189 28.81210327 127.19741821 C28.14690283 125.2776077 27.48301834 123.3573407 26.82046509 121.43661499 C25.89099344 118.74403454 24.95600826 116.05343192 24.01953125 113.36328125 C23.60471497 112.15649216 23.60471497 112.15649216 23.18151855 110.92532349 C22.03520326 107.64861308 20.9356448 104.9034672 19 102 Z " fill="#123575" transform="translate(189,7)"/>
<path d="M0 0 C14.85 0 29.7 0 45 0 C45 0.33 45 0.66 45 1 C44.32453125 1.14695312 43.6490625 1.29390625 42.953125 1.4453125 C36.95983947 2.93321042 36.95983947 2.93321042 32.4375 7 C30.5563266 10.9259271 29.8676527 13.80849045 29.79467773 18.11401367 C29.77449585 19.16939331 29.75431396 20.22477295 29.73352051 21.31213379 C29.71704468 22.41955933 29.70056885 23.52698486 29.68359375 24.66796875 C29.66494263 25.68717407 29.6462915 26.70637939 29.6270752 27.75646973 C29.55873426 31.56672428 29.49861317 35.37712267 29.4375 39.1875 C29.293125 47.705625 29.14875 56.22375 29 65 C56.06 65 83.12 65 111 65 C110.87625 51.820625 110.87625 51.820625 110.75 38.375 C110.72631348 34.2281665 110.72631348 34.2281665 110.70214844 29.99755859 C110.67277451 27.79783031 110.64194798 25.59812074 110.609375 23.3984375 C110.60768311 21.69554565 110.60768311 21.69554565 110.60595703 19.95825195 C110.49306539 13.71754673 110.31092633 9.68208514 106 5 C103.06644453 3.19970518 103.06644453 3.19970518 100 2 C98.68 1.34 97.36 0.68 96 0 C109.53 0 123.06 0 137 0 C135.49400979 3.01198042 132.97413004 3.57241758 130 5 C126.83552987 6.64603084 126.83552987 6.64603084 126.32127762 9.30996037 C126.01013417 11.91514715 125.86865449 14.4176102 125.85955811 17.04063416 C125.85384796 18.0317067 125.84813782 19.02277924 125.84225464 20.04388428 C125.84113678 21.11986877 125.84001892 22.19585327 125.83886719 23.30444336 C125.83390228 24.44645706 125.82893738 25.58847076 125.82382202 26.76509094 C125.80922576 30.54001468 125.80240351 34.31489644 125.796875 38.08984375 C125.79112262 40.71391298 125.7853649 43.33798219 125.77960205 45.96205139 C125.77004112 50.75968001 125.76413752 55.55729957 125.7611053 60.35493654 C125.75662254 67.40766384 125.73905807 74.46019753 125.7101047 81.51286596 C125.68586199 87.63123947 125.67816006 93.74953316 125.67642975 99.86795235 C125.67340155 102.46708799 125.66536745 105.06622279 125.65224457 107.66532707 C125.63520337 111.29908851 125.63705964 114.932377 125.64355469 118.56616211 C125.6343399 119.64012238 125.62512512 120.71408264 125.6156311 121.82058716 C125.6463119 127.29600022 125.85898856 131.29528767 129 136 C131.55279926 138.30575417 133.86373966 139.43186983 137 141 C124.13 141 111.26 141 98 141 C98 140.67 98 140.34 98 140 C99.60875 139.6596875 99.60875 139.6596875 101.25 139.3125 C105.9846179 137.65538374 107.79875037 135.40249925 110 131 C110.12016672 129.02965512 110.17735333 127.05535064 110.20532227 125.08154297 C110.22550415 123.82301514 110.24568604 122.5644873 110.26647949 121.26782227 C110.28324915 119.9259456 110.29989241 118.58406734 110.31640625 117.2421875 C110.33505737 116.02539307 110.3537085 114.80859863 110.3729248 113.55493164 C110.44139562 108.99503064 110.50143358 104.43500617 110.5625 99.875 C110.706875 89.68625 110.85125 79.4975 111 69 C83.94 69 56.88 69 29 69 C29.103125 78.77625 29.20625 88.5525 29.3125 98.625 C29.33739502 101.70279785 29.36229004 104.7805957 29.38793945 107.95166016 C29.42023137 110.39747646 29.45360536 112.84327883 29.48828125 115.2890625 C29.49764709 117.18628052 29.49764709 117.18628052 29.50720215 119.12182617 C29.52714233 120.33926514 29.54708252 121.5567041 29.56762695 122.81103516 C29.57873001 123.86360504 29.58983307 124.91617493 29.60127258 126.00064087 C30.23218645 130.74658305 31.9332763 134.01533197 35.4375 137.25 C38.15294064 139.18906466 38.15294064 139.18906466 42 141 C29.13 141 16.26 141 3 141 C4.98 140.01 4.98 140.01 7 139 C10.34919225 136.60771982 12.47657689 134.83069314 14 131 C14.30115606 128.58603632 14.30115606 128.58603632 14.26069641 125.95899963 C14.26778122 124.94261414 14.27486603 123.92622864 14.28216553 122.87904358 C14.27968811 121.76984055 14.27721069 120.66063751 14.2746582 119.51782227 C14.27976913 118.34508759 14.28488007 117.17235291 14.29014587 115.96408081 C14.30166285 112.75122624 14.30411567 109.53853168 14.30158257 106.3256619 C14.30051219 103.64176836 14.30539795 100.95789857 14.310188 98.27401012 C14.32127978 91.941363 14.32172245 85.60877519 14.31567383 79.27612305 C14.3096334 72.74703505 14.3219474 66.21816253 14.3432439 59.68911129 C14.36086691 54.07964314 14.36686016 48.47024352 14.36360615 42.86074871 C14.36179426 39.51213817 14.36441996 36.16368133 14.37832069 32.8150959 C14.39063506 29.08041838 14.38392295 25.34624157 14.37231445 21.61157227 C14.37995819 20.50439346 14.38760193 19.39721466 14.39547729 18.25648499 C14.46031218 11.08818053 14.46031218 11.08818053 11 5 C7.41325059 2.81676123 4.14693088 1.60984278 0 1 C0 0.67 0 0.34 0 0 Z " fill="#F16B4D" transform="translate(729,297)"/>
<path d="M0 0 C7.18584121 -0.05107759 14.37163488 -0.08589083 21.55761719 -0.10986328 C23.99773915 -0.11986643 26.4378493 -0.13347322 28.87792969 -0.15087891 C32.40302463 -0.17537875 35.92795988 -0.18654033 39.453125 -0.1953125 C41.06637665 -0.21079636 41.06637665 -0.21079636 42.71221924 -0.22659302 C56.37558585 -0.22857732 69.42295694 1.7198595 79.9375 11.1875 C87.45194762 19.41848419 89.39202679 29.59306122 89.26953125 40.328125 C88.62503518 49.10821633 85.35119777 55.73590399 79.27734375 62.05859375 C73.69460332 66.81780815 67.05997466 69.31174519 60 71 C60.556875 71.4125 61.11375 71.825 61.6875 72.25 C64.16271996 74.12313943 66.58834178 76.04572523 69 78 C69.98613281 78.79857422 69.98613281 78.79857422 70.9921875 79.61328125 C78.44054513 86.33534675 82.9925677 95.43577934 88 104 C89.56359984 106.65703663 91.13133829 109.31144947 92.70605469 111.96191406 C93.70288773 113.64095669 94.69358309 115.3236655 95.67675781 117.01074219 C101.74485973 127.26520014 108.14305407 135.65957156 119 141 C115.0018973 141.32191931 111.0071311 141.51551054 107 141.6875 C105.87464844 141.77966797 104.74929688 141.87183594 103.58984375 141.96679688 C95.39359435 142.23041893 95.39359435 142.23041893 91.68139648 138.95288086 C89.54394946 136.06943009 87.76393234 133.12533599 86 130 C84.68164491 127.90809851 83.35998402 125.81827702 82.03515625 123.73046875 C80.7070747 121.55182921 79.38293504 119.37078243 78.0625 117.1875 C77.00588224 115.45691274 75.94698248 113.727735 74.88804626 111.99856567 C72.76799328 108.53598904 70.65272026 105.0704874 68.5390625 101.60400391 C61.17050687 89.57575218 53.97429046 78.64241299 40 74 C37.93222573 73.61612935 35.85901877 73.26089387 33.7824707 72.92773438 C32.7001265 72.75254272 31.61778229 72.57735107 30.50263977 72.39685059 C29.67676865 72.26588989 28.85089752 72.1349292 28 72 C28.06722528 79.81076993 28.15712041 87.62104818 28.26245117 95.43139648 C28.29722663 98.08605803 28.32367187 100.74042896 28.34643555 103.39526367 C28.38013789 107.22083852 28.43246396 111.0457853 28.48828125 114.87109375 C28.49467117 116.04957382 28.5010611 117.22805389 28.50764465 118.44224548 C28.6218762 124.90851797 28.90404257 131.1733506 32 137 C34.39411029 138.68409102 34.39411029 138.68409102 37.1875 139.0625 C38.08855469 139.25972656 38.98960937 139.45695313 39.91796875 139.66015625 C40.94857422 139.82837891 40.94857422 139.82837891 42 140 C42 140.33 42 140.66 42 141 C28.47 141 14.94 141 1 141 C1 140.67 1 140.34 1 140 C2.051875 139.79375 3.10375 139.5875 4.1875 139.375 C8.69800939 138.09412512 10.39459539 135.83147736 13 132 C13.97081587 129.04707872 14.12929761 126.34169988 14.14044189 123.24493408 C14.14615204 122.29178314 14.15186218 121.3386322 14.15774536 120.3565979 C14.15886322 119.31756317 14.15998108 118.27852844 14.16113281 117.20800781 C14.16858017 115.5585466 14.16858017 115.5585466 14.17617798 113.87576294 C14.19079262 110.23487727 14.19760068 106.59403519 14.203125 102.953125 C14.20887727 100.42209878 14.214635 97.89107258 14.22039795 95.36004639 C14.22956321 90.72911093 14.23586415 86.09818853 14.2388947 81.46724629 C14.24337123 74.66525791 14.2609032 67.86347089 14.2898953 61.0615437 C14.31417741 55.15836744 14.32184199 49.25524094 14.32357025 43.35201263 C14.32659402 40.84663548 14.3346132 38.34125912 14.34775543 35.83591461 C14.36484737 32.32697891 14.3629276 28.81853098 14.35644531 25.30957031 C14.3656601 24.27863251 14.37487488 23.2476947 14.3843689 22.18551636 C14.34920256 16.09563465 13.62857455 11.52585135 11 6 C7.69787339 3.32260005 4.04560015 2.22308842 0 1 C0 0.67 0 0.34 0 0 Z M28 4 C27.97687341 12.45767334 27.9590833 20.91533356 27.94818783 29.37303066 C27.94295969 33.29988658 27.93586331 37.22672094 27.92456055 41.15356445 C27.9137292 44.94014257 27.90772264 48.7266999 27.90512276 52.51329231 C27.90326895 53.96104319 27.89964919 55.40879288 27.89426994 56.85653496 C27.88705633 58.87757135 27.88659192 60.89862848 27.88647461 62.91967773 C27.884254 64.07217514 27.88203339 65.22467255 27.87974548 66.41209412 C27.70562405 68.93013147 27.70562405 68.93013147 29 70 C41.58012438 70.65069609 54.46030264 69.38915608 65 62 C71.70990752 55.31625197 73.87683227 47.72172956 74.3125 38.4375 C74.1711448 29.05151451 71.1897576 20.07794473 65.046875 12.9375 C55.797425 4.18229542 46.0831043 2.75955612 33.8203125 2.83203125 C30.92060668 2.88242675 30.92060668 2.88242675 28 4 Z " fill="#F16A4D" transform="translate(389,297)"/>
<path d="M0 0 C11.03877875 -0.33749132 20.92677474 3.15503081 30.6875 8 C31.35837646 8.33193359 32.02925293 8.66386719 32.72045898 9.00585938 C36.41600917 10.923082 39.18569162 12.95063652 42 16 C42.99 16.66 43.98 17.32 45 18 C49.77272727 22.54545455 49.77272727 22.54545455 51 25 C51.598125 25.515625 52.19625 26.03125 52.8125 26.5625 C58.70563175 33.12913253 60.38749308 41.54802011 60.2734375 50.125 C59.52060259 58.04052138 55.03893332 64.97266464 49 70 C32.63725349 80.0999699 15.0442417 81.1493083 -3.46484375 76.9921875 C-8.83460715 75.48509368 -14.08094762 73.65208696 -19 71 C-20.44847463 68.10305074 -19.49879074 66.49580712 -18.63671875 63.40625 C-18.32669922 62.29378906 -18.01667969 61.18132812 -17.69726562 60.03515625 C-17.36404297 58.86855469 -17.03082031 57.70195312 -16.6875 56.5 C-16.20506836 54.75009766 -16.20506836 54.75009766 -15.71289062 52.96484375 C-13.25550469 44.25550469 -13.25550469 44.25550469 -11 42 C-8.97022614 41.77446957 -6.94041952 41.5492063 -4.91015625 41.328125 C-2.89568593 41.09928438 -2.89568593 41.09928438 -1 39.8125 C0.53397053 37.03217842 0.4452286 35.11660022 0 32 C-2.11906548 29.36943595 -4.18018645 27.8798757 -7 26 C-4.86602101 17.26910121 -2.71981556 8.57153995 0 0 Z M1 1 C1 1.33 1 1.66 1 2 C2.98 2 4.96 2 7 2 C7 1.67 7 1.34 7 1 C5.02 1 3.04 1 1 1 Z " fill="#F16B4E" transform="translate(771,110)"/>
<path d="M0 0 C0.79559326 -0.00394775 1.59118652 -0.00789551 2.41088867 -0.01196289 C8.22965446 0.0450435 13.39729694 0.88629771 18.95703125 2.69140625 C21.83564378 3.33966072 23.6326849 3.1214451 26.4375 2.25 C27.0975 1.59 27.7575 0.93 28.4375 0.25 C28.4375 9.49 28.4375 18.73 28.4375 28.25 C28.1075 28.25 27.7775 28.25 27.4375 28.25 C27.29054688 27.693125 27.14359375 27.13625 26.9921875 26.5625 C24.2570817 17.25685268 19.71610346 11.61359205 11.5859375 6.37890625 C5.07490231 2.95765322 -3.37948907 3.29091186 -10.390625 4.8984375 C-18.12536387 7.67440207 -23.42024405 12.26605474 -27 19.6875 C-29.95768474 28.11047175 -30.27366368 38.62789832 -26.5 46.8125 C-20.48515696 56.75438931 -11.38879279 61.64790446 -1.5625 67.25 C31.2840622 85.99432082 31.2840622 85.99432082 34.99609375 99.51171875 C36.95005203 111.63317676 35.78560602 121.79142282 29.12109375 132.33203125 C23.44975374 139.74839896 14.36326627 144.11984035 5.4375 146.25 C1.67689213 146.67445716 -2.03065608 146.72613191 -5.8125 146.6875 C-7.33049194 146.67940308 -7.33049194 146.67940308 -8.87915039 146.67114258 C-16.76342235 146.51129637 -23.25366725 145.31817567 -30.5625 142.25 C-35.93542617 139.76026488 -35.93542617 139.76026488 -41.5625 140.25 C-42.78770264 143.25847418 -42.78770264 143.25847418 -43.5625 146.25 C-43.8925 146.25 -44.2225 146.25 -44.5625 146.25 C-44.5625 134.7 -44.5625 123.15 -44.5625 111.25 C-43.16940945 114.03618111 -41.90099868 116.76675931 -40.6875 119.625 C-36.19488158 129.65960756 -29.82984029 136.30847434 -19.640625 140.5234375 C-10.96491401 143.5566748 0.99526775 143.80634001 9.546875 140.28125 C15.37803365 137.10061801 19.33956875 133.184958 21.77734375 126.9375 C23.74345772 118.93343839 23.44162801 110.7440226 19.80078125 103.3125 C12.29217029 91.95276766 0.37542343 86.15366997 -11.25 79.75 C-19.24889432 75.31960689 -26.4499823 71.16958172 -32.5625 64.25 C-33.15804687 63.58613281 -33.75359375 62.92226563 -34.3671875 62.23828125 C-41.961716 52.99039846 -42.56846222 42.78427131 -41.5625 31.25 C-39.404593 20.85865023 -33.31450819 12.56997175 -24.67578125 6.53125 C-16.62918814 1.65272405 -9.30162506 0.03994623 0 0 Z " fill="#F16A4D" transform="translate(660.5625,294.75)"/>
<path d="M0 0 C14.52 0 29.04 0 44 0 C41.66629467 1.16685266 39.31775889 2.30631234 36.9375 3.375 C32.87919684 5.62001877 31.44956878 7.65129365 30 12 C29.90230663 13.59780977 29.86078706 15.19935133 29.85282898 16.80012512 C29.84567368 17.78844833 29.83851837 18.77677155 29.83114624 19.79504395 C29.82845734 20.87821899 29.82576843 21.96139404 29.82299805 23.07739258 C29.81642685 24.21911423 29.80985565 25.36083588 29.80308533 26.53715515 C29.78334203 30.32294782 29.7716882 34.10870082 29.76171875 37.89453125 C29.75764322 39.18613348 29.7535677 40.47773571 29.74936867 41.8084774 C29.73065658 47.93806359 29.71609085 54.06762986 29.7077567 60.19723874 C29.6979848 67.26702324 29.6716641 74.33649459 29.63125581 81.40616876 C29.59743474 87.53415205 29.58560994 93.66200386 29.58155251 99.7900753 C29.57667565 102.394804 29.56503062 104.99952909 29.54651451 107.60419655 C29.52221972 111.24786061 29.52307084 114.89070391 29.5300293 118.53442383 C29.51081421 120.15007736 29.51081421 120.15007736 29.49121094 121.79837036 C29.53343828 127.86009193 29.95602624 131.3826105 34 136 C36.59093972 138.26707226 38.85761743 139.42880871 42 141 C28.8 141 15.6 141 2 141 C2 140.67 2 140.34 2 140 C2.886875 139.773125 3.77375 139.54625 4.6875 139.3125 C8.95434135 137.62186475 11.92493804 135.15012391 14 131 C14.09896805 129.40221372 14.13505481 127.80034802 14.14044189 126.19950867 C14.14615204 125.1858725 14.15186218 124.17223633 14.15774536 123.12788391 C14.15942215 121.45329353 14.15942215 121.45329353 14.16113281 119.74487305 C14.16609772 118.57243042 14.17106262 117.39998779 14.17617798 116.1920166 C14.18829915 112.97082179 14.19574821 109.74966329 14.20018864 106.52844977 C14.20311886 104.51593542 14.2072236 102.50342678 14.21169281 100.4909153 C14.22537017 94.19420513 14.23503526 87.897508 14.2388947 81.600784 C14.24337413 74.33237703 14.26091547 67.06415824 14.2898953 59.79580849 C14.31151681 54.1778982 14.32159925 48.56004083 14.32293582 42.94208938 C14.32398366 39.58672818 14.32988652 36.23154381 14.34775543 32.87622643 C14.36477491 29.13177545 14.36294536 25.38778431 14.35644531 21.64331055 C14.3656601 20.53298965 14.37487488 19.42266876 14.3843689 18.27870178 C14.46767879 11.09572854 14.46767879 11.09572854 11 5 C8.31467169 3.55370957 8.31467169 3.55370957 5.3125 2.6875 C4.31863281 2.36136719 3.32476563 2.03523438 2.30078125 1.69921875 C1.54152344 1.46847656 0.78226563 1.23773438 0 1 C0 0.67 0 0.34 0 0 Z " fill="#F16A4D" transform="translate(538,297)"/>
<path d="M0 0 C2.27812446 -0.00968899 4.55533958 -0.0407272 6.83325195 -0.07226562 C8.29613726 -0.07879838 9.75902898 -0.08404778 11.22192383 -0.08789062 C12.23166008 -0.10641083 12.23166008 -0.10641083 13.26179504 -0.12530518 C18.2907623 -0.10198724 21.67083763 0.77884037 25.98364258 3.24023438 C29.39297659 8.73705942 28.31202474 15.93604561 28.29614258 22.17773438 C28.31225586 23.44037109 28.32836914 24.70300781 28.3449707 26.00390625 C28.34561523 27.22529297 28.34625977 28.44667969 28.34692383 29.70507812 C28.34990479 30.81488037 28.35288574 31.92468262 28.35595703 33.06811523 C27.85479084 37.33805118 26.73459334 40.81677009 23.31542969 43.59643555 C19.79106728 44.56950053 16.30282069 44.54529296 12.67504883 44.54101562 C11.87131332 44.54530075 11.06757782 44.54958588 10.23948669 44.55400085 C8.54247986 44.5597343 6.84544846 44.56025168 5.1484375 44.5559082 C2.55857214 44.55274953 -0.03014893 44.57621406 -2.61987305 44.6015625 C-4.27156432 44.6038358 -5.92325865 44.60453884 -7.57495117 44.60351562 C-8.34592636 44.61272537 -9.11690155 44.62193512 -9.91123962 44.63142395 C-14.43238882 44.59271318 -17.57181173 44.28222811 -21.01635742 41.24023438 C-22.89035078 37.18191606 -23.27223355 33.5765735 -23.28198242 29.14257812 C-23.28456055 28.01142578 -23.28713867 26.88027344 -23.28979492 25.71484375 C-23.28206055 24.54759766 -23.27432617 23.38035156 -23.26635742 22.17773438 C-23.2740918 21.00662109 -23.28182617 19.83550781 -23.28979492 18.62890625 C-23.2872168 17.49904297 -23.28463867 16.36917969 -23.28198242 15.20507812 C-23.27972656 14.18019287 -23.2774707 13.15530762 -23.27514648 12.09936523 C-22.93565928 8.34867218 -21.97369736 5.45866703 -19.64135742 2.49023438 C-14.44941415 -1.50356814 -6.23500839 0.01605065 0 0 Z M-13.90185547 9.43457031 C-15.41437636 11.88508609 -15.38879158 13.62284766 -15.37963867 16.49414062 C-15.37899414 17.51314453 -15.37834961 18.53214844 -15.37768555 19.58203125 C-15.36157227 20.64486328 -15.34545898 21.70769531 -15.32885742 22.80273438 C-15.33208008 23.86943359 -15.33530273 24.93613281 -15.33862305 26.03515625 C-15.68352949 31.69551112 -15.68352949 31.69551112 -13.01635742 36.24023438 C-9.84212219 36.55274809 -9.84212219 36.55274809 -6.11010742 36.50585938 C-5.42960327 36.50777283 -4.74909912 36.50968628 -4.04797363 36.51165771 C-2.60888296 36.51301901 -1.16977999 36.50932643 0.26928711 36.50097656 C2.47513345 36.49027565 4.68016539 36.50087309 6.88598633 36.51367188 C8.28312355 36.51235027 9.68026026 36.50978785 11.07739258 36.50585938 C12.35291992 36.50360352 13.62844727 36.50134766 14.94262695 36.49902344 C18.09366688 36.55994503 18.09366688 36.55994503 19.98364258 34.24023438 C20.43959204 30.25868102 20.3076767 26.24488309 20.29614258 22.24023438 C20.31225586 21.12132812 20.32836914 20.00242187 20.3449707 18.84960938 C20.34561523 17.78226562 20.34625977 16.71492188 20.34692383 15.61523438 C20.34990479 14.63296875 20.35288574 13.65070313 20.35595703 12.63867188 C20.23309326 11.8471875 20.11022949 11.05570312 19.98364258 10.24023438 C15.23456029 7.07417952 10.11878661 7.90638223 4.53198242 7.92456055 C2.49058804 7.92772361 0.45063939 7.9042431 -1.59057617 7.87890625 C-2.87577148 7.87826172 -4.1609668 7.87761719 -5.48510742 7.87695312 C-6.66524414 7.87397217 -7.84538086 7.87099121 -9.0612793 7.86791992 C-11.9660741 8.02110111 -11.9660741 8.02110111 -13.90185547 9.43457031 Z " fill="#F16A4C" transform="translate(717.016357421875,472.759765625)"/>
<path d="M0 0 C2.27812446 -0.00968899 4.55533958 -0.0407272 6.83325195 -0.07226562 C8.29613726 -0.07879838 9.75902898 -0.08404778 11.22192383 -0.08789062 C12.23166008 -0.10641083 12.23166008 -0.10641083 13.26179504 -0.12530518 C18.28340156 -0.10202137 21.64669201 0.85138764 25.98364258 3.24023438 C29.57266691 7.70258179 28.31654422 14.66688882 28.29931641 20.0847168 C28.29615781 22.167688 28.31962777 24.24923558 28.3449707 26.33203125 C28.34561523 27.65138672 28.34625977 28.97074219 28.34692383 30.33007812 C28.34990479 31.535271 28.35288574 32.74046387 28.35595703 33.98217773 C27.94527007 37.57602527 27.21174801 39.41124906 24.98364258 42.24023438 C21.415988 44.99632672 17.13656646 44.5289137 12.82348633 44.50585938 C11.64406212 44.50872955 11.64406212 44.50872955 10.44081116 44.51165771 C8.78247761 44.51301598 7.1241333 44.50934457 5.46582031 44.50097656 C2.9265969 44.4902574 0.38807863 44.50089107 -2.15112305 44.51367188 C-3.76375482 44.5123505 -5.37638615 44.50978855 -6.98901367 44.50585938 C-7.74843765 44.50990784 -8.50786163 44.5139563 -9.29029846 44.51812744 C-15.48221041 44.46296172 -17.78567209 42.4709197 -22.01635742 38.24023438 C-24.05066981 28.06867244 -24.75095878 14.04605934 -21.01635742 4.24023438 C-16.23161678 -1.89947707 -7.01208118 0.01805105 0 0 Z M-13.91552734 9.97070312 C-15.17117725 12.55941937 -15.38982136 14.25065093 -15.37963867 17.11914062 C-15.37899414 18.04017578 -15.37834961 18.96121094 -15.37768555 19.91015625 C-15.36157227 20.86470703 -15.34545898 21.81925781 -15.32885742 22.80273438 C-15.33208008 23.76115234 -15.33530273 24.71957031 -15.33862305 25.70703125 C-15.41856113 31.29944842 -15.41856113 31.29944842 -13.01635742 36.24023438 C-8.62913593 36.84922646 -4.21024876 36.75507341 0.21435547 36.74121094 C2.41027154 36.74023919 4.6026854 36.78182513 6.7980957 36.82617188 C8.19196862 36.83137943 9.58585369 36.83406706 10.97973633 36.83398438 C12.88517212 36.84461914 12.88517212 36.84461914 14.82910156 36.85546875 C18.12438465 36.55522472 18.12438465 36.55522472 19.89648438 33.96875 C20.91439534 31.41402894 21.36885666 29.71048114 21.38208008 26.99023438 C21.38594727 26.21679688 21.38981445 25.44335938 21.39379883 24.64648438 C21.38219727 23.85242188 21.3705957 23.05835938 21.35864258 22.24023438 C21.37024414 21.44617188 21.3818457 20.65210938 21.39379883 19.83398438 C21.38799805 18.67382812 21.38799805 18.67382812 21.38208008 17.49023438 C21.37869629 16.79414063 21.3753125 16.09804688 21.37182617 15.38085938 C20.82232838 12.35067282 19.96337901 10.61311538 17.98364258 8.24023438 C14.85099981 7.48364137 14.85099981 7.48364137 11.23364258 7.61132812 C10.25186035 7.60771019 10.25186035 7.60771019 9.25024414 7.60401917 C7.86834648 7.60499735 6.48640952 7.61838511 5.10473633 7.64331055 C2.99010058 7.67762957 0.87964275 7.66397553 -1.23510742 7.64453125 C-2.5788752 7.65142991 -3.92263219 7.66110251 -5.26635742 7.67382812 C-7.0994043 7.69014282 -7.0994043 7.69014282 -8.96948242 7.70678711 C-12.05708875 7.96686233 -12.05708875 7.96686233 -13.91552734 9.97070312 Z " fill="#F16A4D" transform="translate(595.016357421875,472.759765625)"/>
<path d="M0 0 C2.05424826 0.00316563 4.10706148 -0.02035906 6.16113281 -0.0456543 C8.12179687 -0.04662109 8.12179687 -0.04662109 10.12207031 -0.04760742 C11.30929687 -0.05058838 12.49652344 -0.05356934 13.71972656 -0.05664062 C17.45158324 0.3593741 19.8738661 1.35398506 23.05957031 3.31567383 C23.93457031 5.50317383 23.93457031 5.50317383 24.05957031 7.31567383 C22.30957031 8.87817383 22.30957031 8.87817383 20.05957031 10.31567383 C18.72062344 10.00565743 17.3883618 9.66667535 16.05957031 9.31567383 C13.90095601 9.22283397 11.73971037 9.18498836 9.57910156 9.18286133 C8.33322266 9.18157227 7.08734375 9.1802832 5.80371094 9.17895508 C4.50626953 9.18282227 3.20882812 9.18668945 1.87207031 9.19067383 C0.56302734 9.18680664 -0.74601563 9.18293945 -2.09472656 9.17895508 C-3.33673828 9.18024414 -4.57875 9.1815332 -5.85839844 9.18286133 C-7.57192505 9.18455322 -7.57192505 9.18455322 -9.32006836 9.1862793 C-11.86665628 9.01810992 -11.86665628 9.01810992 -12.94042969 10.31567383 C-13.03989422 12.08426576 -13.07123186 13.85678834 -13.07324219 15.62817383 C-13.07453125 16.70325195 -13.07582031 17.77833008 -13.07714844 18.88598633 C-13.07328125 20.0177832 -13.06941406 21.14958008 -13.06542969 22.31567383 C-13.06929687 23.4474707 -13.07316406 24.57926758 -13.07714844 25.74536133 C-13.07521484 27.35797852 -13.07521484 27.35797852 -13.07324219 29.00317383 C-13.07211426 29.99704102 -13.07098633 30.9909082 -13.06982422 32.01489258 C-13.19877299 34.27942609 -13.19877299 34.27942609 -11.94042969 35.31567383 C-9.80689795 35.41570672 -7.67005427 35.4464843 -5.53417969 35.44848633 C-3.58318359 35.45041992 -3.58318359 35.45041992 -1.59277344 35.45239258 C-0.57159424 35.44925049 -0.57159424 35.44925049 0.47021484 35.44604492 C2.55085546 35.44069623 4.6312802 35.44599063 6.71191406 35.45239258 C8.01257813 35.45110352 9.31324219 35.44981445 10.65332031 35.44848633 C11.85666016 35.4473584 13.06 35.44623047 14.29980469 35.44506836 C16.96941514 35.6302336 16.96941514 35.6302336 18.05957031 34.31567383 C18.29149896 32.80097934 18.4717227 31.27812821 18.62207031 29.75317383 C18.76644531 28.28879883 18.91082031 26.82442383 19.05957031 25.31567383 C13.44957031 25.31567383 7.83957031 25.31567383 2.05957031 25.31567383 C2.05957031 23.33567383 2.05957031 21.35567383 2.05957031 19.31567383 C9.97957031 19.31567383 17.89957031 19.31567383 26.05957031 19.31567383 C26.05957031 26.90567383 26.05957031 34.49567383 26.05957031 42.31567383 C24.05924658 43.31583569 22.22831283 43.80963391 20.05957031 44.31567383 C20.05957031 42.99567383 20.05957031 41.67567383 20.05957031 40.31567383 C19.20886963 40.96544189 18.35816895 41.61520996 17.48168945 42.28466797 C13.67220803 44.54557087 11.68260712 44.81880988 7.30566406 44.81176758 C5.4059082 44.81273437 5.4059082 44.81273437 3.46777344 44.8137207 C2.15744141 44.79374023 0.84710937 44.77375977 -0.50292969 44.75317383 C-1.81712891 44.76026367 -3.13132812 44.76735352 -4.48535156 44.7746582 C-15.59557653 44.70108055 -15.59557653 44.70108055 -19.94042969 41.31567383 C-23.30884083 36.68164529 -22.27416061 30.41864836 -22.25610352 24.95336914 C-22.25295116 22.95429026 -22.27726111 20.95523009 -22.30175781 18.95629883 C-22.30240234 17.6852832 -22.30304687 16.41426758 -22.30371094 15.10473633 C-22.30669189 13.9466748 -22.30967285 12.78861328 -22.31274414 11.59545898 C-21.88069326 7.78944485 -21.10981126 5.4786762 -18.94042969 2.31567383 C-13.0009435 -0.6093125 -6.47911003 -0.02091535 0 0 Z " fill="#F1694C" transform="translate(782.9404296875,472.684326171875)"/>
<path d="M0 0 C14.19 0 28.38 0 43 0 C43 2.64 43 5.28 43 8 C31.45 8 19.9 8 8 8 C8 11.63 8 15.26 8 19 C19.22 19 30.44 19 42 19 C42 20.98 42 22.96 42 25 C30.78 25 19.56 25 8 25 C8 28.63 8 32.26 8 36 C19.55 36 31.1 36 43 36 C43 38.64 43 41.28 43 44 C29.14 44 15.28 44 1 44 C0.22909057 40.91636228 -0.12320749 38.93356671 -0.11352539 35.87402344 C-0.11340454 35.06239746 -0.11328369 34.25077148 -0.11315918 33.41455078 C-0.10804321 32.57134277 -0.10292725 31.72813477 -0.09765625 30.859375 C-0.09664917 30.0770752 -0.09564209 29.29477539 -0.09460449 28.48876953 C-0.08938569 25.57583137 -0.07542443 22.66291416 -0.0625 19.75 C-0.041875 13.2325 -0.02125 6.715 0 0 Z " fill="#F16A4C" transform="translate(328,473)"/>
<path d="M0 0 C9 0 9 0 12.0390625 2.125 C12.89242187 3.07375 13.74578125 4.0225 14.625 5 C15.09099609 5.50402344 15.55699219 6.00804687 16.03710938 6.52734375 C17.38359571 7.99521928 18.69285562 9.49698384 20 11 C20.92425781 12.051875 20.92425781 12.051875 21.8671875 13.125 C22.95198689 14.37070265 24.02890906 15.62331092 25.09765625 16.8828125 C28.06006315 20.17978281 31.24621384 23.25381897 34.4453125 26.3203125 C35.66651672 27.51073006 36.83793876 28.75178232 38 30 C38 30.66 38 31.32 38 32 C38.66 32 39.32 32 40 32 C40 21.44 40 10.88 40 0 C42.64 0 45.28 0 48 0 C48 14.52 48 29.04 48 44 C45.03 44 42.06 44 39 44 C38.67 43.01 38.34 42.02 38 41 C36.68543277 40.29705247 35.34915806 39.63403056 34 39 C30.24625426 35.76250367 26.97297558 32.00627369 23.75 28.25 C20.69820306 24.71158396 17.48347624 21.37135953 14.1875 18.0625 C13.70700195 17.57749023 13.22650391 17.09248047 12.73144531 16.59277344 C10.11444378 13.96607983 10.11444378 13.96607983 7 12 C7 22.56 7 33.12 7 44 C4.69 44 2.38 44 0 44 C0 29.48 0 14.96 0 0 Z " fill="#F16A4C" transform="translate(509,473)"/>
<path d="M0 0 C2.28035313 0.00315939 4.55940664 -0.02032155 6.83959961 -0.0456543 C8.30118653 -0.04792775 9.76277691 -0.04863057 11.22436523 -0.04760742 C12.54364014 -0.05058838 13.86291504 -0.05356934 15.22216797 -0.05664062 C19.11555925 0.34256745 21.54998161 1.24748088 24.85327148 3.31567383 C25.72827148 5.50317383 25.72827148 5.50317383 25.85327148 7.31567383 C24.20327148 8.63567383 22.55327148 9.95567383 20.85327148 11.31567383 C19.86327148 10.65567383 18.87327148 9.99567383 17.85327148 9.31567383 C13.54996585 8.92976559 9.23789452 8.98646879 4.91943359 9 C2.79464819 9.00316805 0.67124494 8.97966507 -1.45336914 8.9543457 C-2.80037259 8.95207345 -4.14737979 8.95136887 -5.49438477 8.95239258 C-7.33528687 8.94792114 -7.33528687 8.94792114 -9.21337891 8.94335938 C-10.18138428 9.06622314 -11.14938965 9.18908691 -12.14672852 9.31567383 C-14.38085864 12.66686902 -14.38520613 13.73344933 -14.34204102 17.63989258 C-14.33454834 19.02954224 -14.33454834 19.02954224 -14.3269043 20.44726562 C-14.30869629 21.62071533 -14.29048828 22.79416504 -14.27172852 24.00317383 C-14.23047852 27.73629883 -14.18922852 31.46942383 -14.14672852 35.31567383 C-2.59672852 35.31567383 8.95327148 35.31567383 20.85327148 35.31567383 C21.34827148 34.32567383 21.34827148 34.32567383 21.85327148 33.31567383 C23.50327148 35.29567383 25.15327148 37.27567383 26.85327148 39.31567383 C22.91785533 43.22051086 20.59099668 44.88274981 14.81297302 44.95910645 C14.07216995 44.94271118 13.33136688 44.92631592 12.56811523 44.90942383 C11.78940567 44.90946411 11.01069611 44.90950439 10.20838928 44.9095459 C8.57032146 44.9042086 6.93225274 44.8867025 5.29443359 44.85766602 C2.79436656 44.81573413 0.29699114 44.81660843 -2.20336914 44.82348633 C-3.80039297 44.81299481 -5.39740299 44.80005689 -6.99438477 44.78442383 C-8.10862572 44.7841217 -8.10862572 44.7841217 -9.24537659 44.78381348 C-13.70615287 44.68255964 -16.61274797 44.08575991 -20.14672852 41.31567383 C-23.38154889 36.46344327 -22.47975069 30.79679154 -22.46240234 25.11938477 C-22.45924958 22.95513214 -22.4826809 20.79225677 -22.50805664 18.62817383 C-22.51033057 17.24536304 -22.51103269 15.8625486 -22.51000977 14.47973633 C-22.51299072 13.22628418 -22.51597168 11.97283203 -22.51904297 10.68139648 C-22.11188458 7.00068466 -21.49057827 5.16691541 -19.14672852 2.31567383 C-13.45237692 -1.00420395 -6.39489736 -0.01857182 0 0 Z " fill="#F16A4C" transform="translate(408.146728515625,472.684326171875)"/>
<path d="M0 0 C2.00146484 0.07861328 2.00146484 0.07861328 4 1 C5.11181641 3.04248047 5.11181641 3.04248047 5.9765625 5.7421875 C6.30688477 6.74088867 6.63720703 7.73958984 6.97753906 8.76855469 C7.31495117 9.83493164 7.65236328 10.90130859 8 12 C8.71463066 14.12811357 9.43080603 16.25570897 10.1484375 18.3828125 C10.89172135 20.62984598 11.63387697 22.87725291 12.375 25.125 C14.91608398 32.79402785 17.47203314 40.45330561 20.1875 48.0625 C20.88298811 50.02304029 21.5776978 51.98385398 22.27197266 53.94482422 C22.79116133 55.41046145 23.31183091 56.87557444 23.83349609 58.34033203 C24.69199474 60.76475545 25.53494776 63.19413139 26.375 65.625 C26.76981567 66.72726929 26.76981567 66.72726929 27.17260742 67.85180664 C28.70001146 72.32304692 29.93808674 76.26542103 29 81 C26.66480052 83.52254047 23.91858167 85.21357079 21 87 C20.20158691 87.50337891 19.40317383 88.00675781 18.58056641 88.52539062 C16.00580677 90.12549531 13.41105319 91.68887849 10.8125 93.25 C3.02718848 98.00037102 -4.22837804 102.96749869 -11.33544922 108.69042969 C-13.22843102 110.17971605 -15.15771008 111.61151272 -17.09765625 113.0390625 C-17.80752686 113.56234131 -18.51739746 114.08562012 -19.2487793 114.62475586 C-20.61583585 115.62952438 -21.98558113 116.63065039 -23.35864258 117.62719727 C-27.39392594 120.61082702 -30.95288337 123.80397321 -34.41943359 127.43505859 C-37.54284847 130.52759633 -40.46645029 133 -45 133 C-44.29741038 128.05064644 -43.05261725 123.40071962 -41.625 118.625 C-41.31175781 117.54992187 -41.31175781 117.54992187 -40.9921875 116.453125 C-39.73048629 112.19103678 -38.30065814 108.03512018 -36.70996094 103.88525391 C-35.65275039 101.07790183 -34.73793129 98.22813474 -33.8125 95.375 C-31.72960804 89.03611694 -29.48291261 82.76474823 -27.1875 76.5 C-18.85579718 53.88369819 -18.85579718 53.88369819 -11.93945312 30.81152344 C-10.21256052 24.42664123 -8.06110803 18.2184288 -5.8125 12 C-5.46703125 11.03698975 -5.1215625 10.07397949 -4.765625 9.08178711 C-4.43691406 8.18854736 -4.10820312 7.29530762 -3.76953125 6.375 C-3.47667236 5.57835938 -3.18381348 4.78171875 -2.88208008 3.9609375 C-2 2 -2 2 0 0 Z M0 7 C-5.36273252 18.36283898 -9.25351863 29.73873425 -12.64819336 41.8125 C-15.86559797 53.18247218 -19.45912899 64.37197029 -23.9375 75.3125 C-27.78070049 84.7092258 -30.88962976 94.34031604 -34 104 C-34.2573291 104.79809082 -34.5146582 105.59618164 -34.77978516 106.41845703 C-37.80905283 115.59841584 -37.80905283 115.59841584 -40 125 C-39.34 125.33 -38.68 125.66 -38 126 C-37.53851563 125.5875 -37.07703125 125.175 -36.6015625 124.75 C-32.10170288 120.76593457 -27.48817625 116.97310877 -22.77734375 113.2421875 C-19.06291811 110.24348101 -15.43298283 107.14940125 -11.81762695 104.03222656 C-3.35084866 96.78760931 5.41234236 91.44885856 15.30664062 86.32421875 C16.25345703 85.82277344 17.20027344 85.32132812 18.17578125 84.8046875 C19.03083252 84.36108887 19.88588379 83.91749023 20.7668457 83.46044922 C23.18338199 81.88007094 24.51155255 80.46373145 26 78 C25.89230581 71.16141896 23.27017053 64.38792573 21 58 C20.24831475 55.70888556 19.49850861 53.41715422 18.75 51.125 C15.99336348 42.80097633 12.94876187 34.58850669 9.87744141 26.37646484 C9.00534623 24.01447976 8.16129277 21.64412857 7.32421875 19.26953125 C7.05859131 18.52823975 6.79296387 17.78694824 6.51928711 17.02319336 C6.01759837 15.62225423 5.52449079 14.21820347 5.04125977 12.81079102 C4.316293 10.72612866 4.316293 10.72612866 3 8 C2.01 7.67 1.02 7.34 0 7 Z " fill="#FEFEFE" transform="translate(207,119)"/>
<path d="M0 0 C4.07625381 0.94865543 8.13171453 1.96761824 12.1875 3 C13.33798828 3.26683594 14.48847656 3.53367188 15.67382812 3.80859375 C25.20184493 6.29416335 25.20184493 6.29416335 28.11328125 11.0625 C28.42692627 11.73410156 28.74057129 12.40570313 29.0637207 13.09765625 C30.08807457 15.178951 31.29216701 16.4505511 33 18 C31.88560614 21.96139848 30.7567071 25.91851606 29.625 29.875 C29.30789063 31.00292969 28.99078125 32.13085938 28.6640625 33.29296875 C28.2 34.90751953 28.2 34.90751953 27.7265625 36.5546875 C27.30238037 38.04718018 27.30238037 38.04718018 26.86962891 39.56982422 C26 42 26 42 24 44 C12.25685051 36.82363086 2.71022063 27.66113495 -1 14 C-1.23046875 10.60546875 -1.23046875 10.60546875 -1.1875 7.1875 C-1.18105469 6.04667969 -1.17460938 4.90585938 -1.16796875 3.73046875 C-1 1 -1 1 0 0 Z " fill="#F16B4E" transform="translate(723,134)"/>
<path d="M0 0 C2.64 0 5.28 0 8 0 C8 5.94 8 11.88 8 18 C16.58 18 25.16 18 34 18 C34.33 12.06 34.66 6.12 35 0 C37.64 0 40.28 0 43 0 C43 14.52 43 29.04 43 44 C40.36 44 37.72 44 35 44 C35 38.06 35 32.12 35 26 C25.76 26 16.52 26 7 26 C7 31.94 7 37.88 7 44 C4.69 44 2.38 44 0 44 C0 29.48 0 14.96 0 0 Z M1 42 C1 42.33 1 42.66 1 43 C2.65 43 4.3 43 6 43 C6 42.67 6 42.34 6 42 C4.35 42 2.7 42 1 42 Z " fill="#F16A4C" transform="translate(450,473)"/>
<path d="M0 0 C-0.66145685 5.66419943 -1.98755972 10.96270761 -3.5625 16.4375 C-3.79646484 17.26443359 -4.03042969 18.09136719 -4.27148438 18.94335938 C-4.84363015 20.96338426 -5.42125204 22.98185676 -6 25 C-6.60328125 25.12117188 -7.2065625 25.24234375 -7.828125 25.3671875 C-8.62734375 25.53476563 -9.4265625 25.70234375 -10.25 25.875 C-11.43335938 26.11863281 -11.43335938 26.11863281 -12.640625 26.3671875 C-15.01383353 26.88984794 -15.01383353 26.88984794 -16.94433594 28.15380859 C-19.90703713 29.37337182 -21.61451163 28.59765067 -24.640625 27.6640625 C-25.71054687 27.34179688 -26.78046875 27.01953125 -27.8828125 26.6875 C-29.54957031 26.1615625 -29.54957031 26.1615625 -31.25 25.625 C-32.37664063 25.28210938 -33.50328125 24.93921875 -34.6640625 24.5859375 C-37.44697751 23.73691258 -40.22501929 22.87454321 -43 22 C-42.6875 19.625 -42.6875 19.625 -42 17 C-41.01 16.34 -40.02 15.68 -39 15 C-38.690625 14.319375 -38.38125 13.63875 -38.0625 12.9375 C-37.711875 12.298125 -37.36125 11.65875 -37 11 C-35.67511887 10.63451555 -34.33981486 10.3062434 -33 10 C-31.2925002 8.71937515 -29.62626404 7.38232443 -28 6 C-19.76831502 -0.67757018 -10.16979749 -0.39565495 0 0 Z " fill="#F16B4E" transform="translate(767,110)"/>
<path d="M0 0 C2.64 0 5.28 0 8 0 C8 11.88 8 23.76 8 36 C19.22 36 30.44 36 42 36 C42 38.64 42 41.28 42 44 C28.14 44 14.28 44 0 44 C0 29.48 0 14.96 0 0 Z " fill="#F1694C" transform="translate(639,473)"/>
<path d="M0 0 C13.53 0 27.06 0 41 0 C41 2.64 41 5.28 41 8 C35.39 8 29.78 8 24 8 C24 19.88 24 31.76 24 44 C21.69 44 19.38 44 17 44 C17 32.12 17 20.24 17 8 C12.05 8 7.1 8 2 8 C1.67 7.34 1.34 6.68 1 6 C0.67 6 0.34 6 0 6 C0 4.02 0 2.04 0 0 Z M1 1 C2 3 2 3 2 3 Z M18 42 C18 42.33 18 42.66 18 43 C19.65 43 21.3 43 23 43 C23 42.67 23 42.34 23 42 C21.35 42 19.7 42 18 42 Z " fill="#F1694C" transform="translate(274,473)"/>
<path d="M0 0 C3.60866362 -0.63008412 5.53618964 -0.93942736 9 0 C12.5819891 3.24837247 15.23130493 7.05435028 18 11 C19.18444878 12.52321088 20.37150567 14.04440159 21.5625 15.5625 C24 18.7398374 24 18.7398374 24 21 C24.66 21 25.32 21 26 21 C26.27255615 20.41951904 26.5451123 19.83903809 26.82592773 19.2409668 C27.98776103 17.02336069 29.27731944 15.13989613 30.78515625 13.14453125 C31.31560547 12.44005859 31.84605469 11.73558594 32.39257812 11.00976562 C32.94365234 10.28466797 33.49472656 9.55957031 34.0625 8.8125 C34.61744141 8.07580078 35.17238281 7.33910156 35.74414062 6.58007812 C39.83129699 1.16870301 39.83129699 1.16870301 41 0 C43.33297433 -0.04092937 45.66705225 -0.04241723 48 0 C47.39816251 2.02045442 46.72693904 4.02111039 46 6 C45.34 6.33 44.68 6.66 44 7 C43.67 7.99 43.34 8.98 43 10 C42.34 10.33 41.68 10.66 41 11 C40.67 11.99 40.34 12.98 40 14 C39.01 14.33 38.02 14.66 37 15 C36.6278958 16.32303717 36.29369827 17.65737935 36 19 C35.01 19.495 35.01 19.495 34 20 C33.505 21.485 33.505 21.485 33 23 C32.01 23.495 32.01 23.495 31 24 C29.48418343 28.54744972 29.55411033 33.18000171 29.28125 37.9453125 C29 41 29 41 28 42 C26.33333333 42 24.66666667 42 23 42 C22.01 42.495 22.01 42.495 21 43 C21.020625 41.96101562 21.04125 40.92203125 21.0625 39.8515625 C21.02525051 31.4754611 20.4949183 26.0432147 14.54296875 19.72265625 C11.22695246 16.17232851 8.39202881 12.33524693 5.5 8.4375 C4.95947998 7.72142578 4.41895996 7.00535156 3.86206055 6.26757812 C3.11049683 5.26694336 3.11049683 5.26694336 2.34375 4.24609375 C1.89193359 3.64466553 1.44011719 3.0432373 0.97460938 2.42358398 C0 1 0 1 0 0 Z " fill="#F16A4C" transform="translate(822,473)"/>
<path d="M0 0 C-5.10693473 3.91531663 -7.63515636 4.10265877 -14 4 C-12.68 3.67 -11.36 3.34 -10 3 C-10 2.34 -10 1.68 -10 1 C-6.59437148 0.22157062 -3.49234244 -0.09978121 0 0 Z " fill="#1A3C7A" transform="translate(671,125)"/>
<path d="M0 0 C1.65 0 3.3 0 5 0 C5 0.66 5 1.32 5 2 C5.99 2.33 6.98 2.66 8 3 C5.24921116 3.91692961 3.64051087 4.10886083 0.8125 4.0625 C-1.0746875 4.0315625 -1.0746875 4.0315625 -3 4 C-1.68 3.34 -0.36 2.68 1 2 C0.67 1.34 0.34 0.68 0 0 Z " fill="#22437E" transform="translate(675,126)"/>
<path d="M0 0 C2.875 -0.1875 2.875 -0.1875 6 0 C6.66 0.99 7.32 1.98 8 3 C5.36 3 2.72 3 0 3 C0 2.01 0 1.02 0 0 Z " fill="#092D70" transform="translate(680,127)"/>
<path d="M0 0 C4 1 4 1 4 1 Z " fill="#F16142" transform="translate(844,516)"/>
<path d="M0 0 C2 1 2 1 2 1 Z " fill="#F16749" transform="translate(737,116)"/>
<path d="" fill="#F15D3D" transform="translate(0,0)"/>
<path d="" fill="#F16142" transform="translate(0,0)"/>
<path d="" fill="#F15F40" transform="translate(0,0)"/>
<path d="" fill="#F16244" transform="translate(0,0)"/>
<path d="" fill="#F16242" transform="translate(0,0)"/>
<path d="" fill="#F16243" transform="translate(0,0)"/>
<path d="" fill="#F16344" transform="translate(0,0)"/>
<path d="" fill="#F15F40" transform="translate(0,0)"/>
<path d="" fill="#F15F40" transform="translate(0,0)"/>
<path d="" fill="#F05735" transform="translate(0,0)"/>
<path d="" fill="#F16040" transform="translate(0,0)"/>
<path d="" fill="#F16243" transform="translate(0,0)"/>
<path d="" fill="#F16242" transform="translate(0,0)"/>
<path d="" fill="#F16546" transform="translate(0,0)"/>
<path d="" fill="#F16344" transform="translate(0,0)"/>
<path d="" fill="#F16648" transform="translate(0,0)"/>
<path d="" fill="#F2694C" transform="translate(0,0)"/>
<path d="" fill="#F1674A" transform="translate(0,0)"/>
<path d="" fill="#F16345" transform="translate(0,0)"/>
<path d="" fill="#F2694C" transform="translate(0,0)"/>
</svg>
